<?xml version="1.0" encoding="utf-8"?><svg version="1.1" id="Layer_1" xmlns="http://www.w3.org/2000/svg" xmlns:xlink="http://www.w3.org/1999/xlink" x="0px" y="0px"	 viewBox="0 0 1224 792" style="enable-background:new 0 0 1224 792;" xml:space="preserve"><style type="text/css">	.st0{opacity:0.08;fill:#458966;enable-background:new    ;}</style><g>	<path class="st0" d="M1165.3,679.9c-3.7,0-6.7,3-6.7,6.7c0,0.8,0.2,1.4,0.3,2.2l-16.8,8.3c-2.2-2.9-5.8-4.6-9.6-4.6		c-0.8,0-1.8,0.2-2.6,0.3l-18.1-37c5.9-3.7,9.8-10.2,9.8-17.6c0-11.5-9.4-21-21-21s-21,9.4-21,21c0,1,0.2,1.9,0.2,2.7l-61.7,24.6		c-2.7-4.6-7.7-7.7-13.4-7.7c-3.7,0-6.9,1.3-9.6,3.4l-45.1-40c0.5-1.3,0.8-2.7,0.8-4.3c0-6.9-5.6-12.6-12.5-12.6		c-6.9,0-12.6,5.6-12.6,12.6c0,7,5.6,12.5,12.6,12.5c5,0,9.1-2.9,11.2-7l44.6,39.7c-3,2.9-5,6.9-5,11.4c0,2.1,0.5,4.2,1.3,6.1		l-25.1,14.7c-2.9-3.4-7-5.4-11.7-5.4c-5,0-9.4,2.4-12.3,6.2l-29.4-12.6c0.2-0.8,0.3-1.6,0.3-2.4c0-1.9-0.5-3.5-1.3-5.1l32.8-16.5		c1.3,4.2,5.3,7.2,9.9,7.2c5.8,0,10.6-4.6,10.6-10.6c0-5.8-4.6-10.4-10.6-10.4c-5.8,0-10.4,4.6-10.4,10.4c0,0.6,0,1.3,0.2,1.9		l-33.3,16.6c-1.9-2.6-5-4.3-8.3-4.3c-1.8,0-3.5,0.5-5,1.3l-16.8-23.2c3-2.7,5.1-6.6,5.1-11c0-7.7-5.9-14.1-13.6-14.6v-24		c0.2,0,0.3,0,0.6,0c5.8,0,10.6-4.6,10.6-10.4c0-5.8-4.6-10.4-10.6-10.4c-5.8,0-10.4,4.6-10.4,10.4c0,5.1,3.7,9.4,8.5,10.2v24		c-8,0.2-14.4,6.6-14.4,14.6c0,8.2,6.6,14.6,14.7,14.6c3.2,0,6.1-1,8.5-2.7l16.8,23.2c-2.7,1.9-4.3,5-4.3,8.5c0,2.6,1,5,2.6,6.7		l-11.2,13c-2.7-2.4-6.2-3.8-10.1-3.8c-4.6,0-8.6,1.9-11.5,5.1l-37.8-29.1c0.5-1.1,0.6-2.4,0.6-3.7c0-6.1-4.8-10.9-10.9-10.9		c-4,0-7.5,2.2-9.4,5.4l-14.6-3.5c0.5-1.3,0.8-2.6,0.8-4c0-6.4-5.1-11.5-11.5-11.5c-1.8,0-3.4,0.3-4.8,1l-18.2-65.7		c5.8-1.4,9.9-6.7,9.9-13c0-7.4-6.1-13.4-13.4-13.4c-7.4,0-13.4,6.1-13.4,13.4c0,5.6,3.5,10.6,8.5,12.5l-3.5,21.1		c-0.3,0-0.8,0-1.1,0c-4.5,0-8.3,3-9.6,7.2l-40.1-4c0-0.2,0-0.5,0-0.6c0-5.1-4-9.3-9-9.6l-1.3-33.1c8.5-0.2,15.4-7,15.4-15.5		c0-8-5.9-14.6-13.8-15.4l4.8-22.7c0.2,0,0.3,0,0.5,0c6.2,0,11.4-5,11.4-11.4c0-6.2-5-11.4-11.4-11.4c-6.2,0-11.4,5-11.4,11.4		c0,5.6,4.2,10.2,9.4,11.2l-4.8,22.7c-0.2,0-0.3,0-0.5,0c-8.5,0-15.5,6.9-15.5,15.5c0,8.2,6.2,14.9,14.4,15.4l1.3,33.1		c-5,0.3-9,4.5-9,9.6c0,0.8,0.2,1.6,0.3,2.4l-22.4,5.9c-2.4-5.9-8-9.9-14.7-9.9c-1.8,0-3.5,0.3-5.1,0.8l-20.2-48.5		c3.7-1.9,6.2-5.6,6.2-10.1c0-6.2-5.1-11.4-11.4-11.4c-6.2,0-11.4,5.1-11.4,11.4c0,1.9,0.5,3.8,1.3,5.4L576,558c-1.4-2.4-4.2-4-7-4		c-4.6,0-8.3,3.7-8.3,8.3c0,4.6,3.7,8.3,8.3,8.3c4.6,0,8.3-3.7,8.3-8.3c0-1.1-0.2-2.2-0.6-3.2l20.3-10.4c2.1,2.9,5.4,4.8,9.3,4.8		c1.3,0,2.6-0.3,3.8-0.6l20.5,48.8c-5.6,2.4-9.6,8-9.6,14.6c0,2.4,0.5,4.6,1.4,6.7l-25.4,15.2c-1.8-3.8-5.4-6.4-9.9-6.4		c-6.1,0-10.9,4.8-10.9,10.9c0,3,1.3,5.9,3.4,7.8l-11.5,8.8c-0.6-0.2-1.3-0.3-1.9-0.3c-3,0-5.4,2.4-5.4,5.4s2.4,5.4,5.4,5.4		s5.4-2.4,5.4-5.4c0-1.8-1-3.4-2.2-4.5l11.2-8.6c1.8,1.3,4,2.2,6.6,2.2c1.8,0,3.4-0.3,4.8-1.1l7.7,11.5c-1,1-1.6,2.2-1.6,3.8		c0,3,2.4,5.4,5.4,5.4s5.4-2.4,5.4-5.4s-2.4-5.4-5.4-5.4c-1,0-1.9,0.3-2.9,0.8l-7.5-11.4c3-1.9,5-5.3,5-9.1c0-1.1-0.2-2.2-0.5-3.2		l25.6-15.4c2.7,4.8,7.8,8,13.9,8c8.8,0,15.8-7,15.8-15.8c0-1.6-0.3-3.2-0.6-4.6l22.2-5.9c1.4,3.5,4.8,6.1,9,6.1		c1.8,0,3.4-0.5,4.8-1.3l15.7,24c-4.5,2.7-7.5,7.7-7.5,13.3c0,8.6,6.9,15.5,15.5,15.5c8.5,0,15.5-6.9,15.5-15.5		c0-8.5-6.9-15.5-15.5-15.5c-2.4,0-4.6,0.6-6.7,1.6l-15.8-24.2c1.8-1.4,3-3.4,3.5-5.6l40.1,4c-0.2,0.5-0.2,1.1-0.2,1.6		c0,5.6,4.5,10.1,10.1,10.1c5.6,0,10.1-4.5,10.1-10.1c0-4.6-3.2-8.6-7.5-9.8l3.5-21c1.1,0.3,2.4,0.5,3.7,0.5c0.6,0,1.4,0,2.1-0.2		l18.2,66.1c-3.4,2.1-5.4,5.6-5.4,9.8c0,6.2,5.1,11.5,11.5,11.5c4.5,0,8.3-2.6,10.1-6.2l14.6,3.5c-0.5,1.3-0.8,2.7-0.8,4.2		c0,3.7,1.9,7,4.8,9l-10.1,16.3c-1-0.3-1.9-0.6-3-0.6c-4.6,0-8.3,3.7-8.3,8.3c0,4.6,3.7,8.3,8.3,8.3c4.6,0,8.3-3.7,8.3-8.3		c0-3-1.6-5.8-4.2-7.2l10.1-16.2c1.4,0.8,3.2,1.1,5,1.1c4.2,0,7.8-2.4,9.8-5.9l37.4,28.8c-1.9,2.6-3.2,5.8-3.2,9.3		c0,8.6,6.9,15.5,15.5,15.5c8.5,0,15.5-6.9,15.5-15.5c0-4.2-1.6-8-4.3-10.7l11.2-12.8c1.9,1.6,4.3,2.7,7,2.7c4.5,0,8.3-2.9,9.8-6.7		l29,12.5c-1.4,2.4-2.4,5.1-2.4,8.2c0,8.5,6.9,15.5,15.5,15.5s15.5-6.9,15.5-15.5c0-3.4-1.1-6.6-2.9-9.1l24.8-14.7		c2.6,5,7.7,8.2,13.8,8.2c2.2,0,4.3-0.5,6.2-1.3l9.4,25c-3.5,1.6-6.1,5.3-6.1,9.4c0,5.8,4.6,10.4,10.6,10.4		c5.8,0,10.4-4.6,10.4-10.4s-4.6-10.6-10.4-10.6c-1.1,0-2.2,0.2-3.2,0.5l-9.4-25c4.8-2.6,8-7.7,8-13.6c0-2.4-0.5-4.6-1.4-6.6		l61.3-24.5c1.9,9.6,10.4,16.8,20.5,16.8c3.7,0,7-1,10.1-2.6l17.9,36.6c-4.8,1.6-8.3,6.1-8.3,11.5c0,6.7,5.4,12.2,12.2,12.2		c3.2,0,6.1-1.3,8.2-3.2l11.4,17c-1.4,1.3-2.4,3-2.4,5.1c0,3.7,3,6.7,6.7,6.7c3.7,0,6.7-3,6.7-6.7c0-3.7-3-6.7-6.7-6.7		c-1.1,0-2.2,0.3-3.2,0.8l-11.5-17.1c1.9-2.1,3-5,3-8c0-2.2-0.6-4.5-1.8-6.2l16.5-8.3c1.1,1.9,3.2,3.4,5.8,3.4c3.7,0,6.7-3,6.7-6.7		C1172,683,1169,679.9,1165.3,679.9z"/>	<path class="st0" d="M950.1,545.2c-8.2,0-14.7,6.6-14.7,14.7c0,8.2,6.6,14.7,14.7,14.7c7.5,0,13.8-5.6,14.6-13l28.3,11.7		c-1,2.2-1.4,4.6-1.4,7.2c0,10.9,8.8,19.7,19.7,19.7s19.7-8.8,19.7-19.7c0-0.3,0-0.6,0-1.1l45.3-1c0.5,6.1,5.4,10.9,11.7,10.9		c6.4,0,11.7-5.3,11.7-11.7c0-2.2-0.6-4.3-1.8-6.1l33.1-17.9c3.7,6.1,10.4,10.2,17.9,10.2c11.5,0,21-9.4,21-21c0-11.5-9.4-21-21-21		s-21,9.4-21,21c0,3.4,0.8,6.7,2.2,9.4l-33.3,18.1c-1.1-1.4-2.7-2.7-4.3-3.5l7-52.1c1,0.2,2.1,0.3,3,0.3c7.7,0,13.8-6.2,13.8-13.8		c0-7.7-6.2-13.8-13.8-13.8c-7.7,0-13.8,6.2-13.8,13.8c0,6.1,4,11.2,9.4,13.1l-7,52c-1.1-0.3-2.4-0.6-3.7-0.6		c-6.2,0-11.5,5-11.7,11.2l-45.4,1c-1.1-9.8-9.4-17.3-19.5-17.3c-7.8,0-14.6,4.6-17.8,11.2l-28.6-11.8c0-0.2,0-0.2,0-0.3		C964.8,551.8,958.3,545.2,950.1,545.2z"/></g></svg>