<?xml version="1.0" encoding="utf-8"?><svg version="1.1" id="Layer_1" xmlns="http://www.w3.org/2000/svg" xmlns:xlink="http://www.w3.org/1999/xlink" x="0px" y="0px"	 viewBox="0 0 1224 792" style="enable-background:new 0 0 1224 792;" xml:space="preserve"><style type="text/css">	.st0{opacity:0.08;fill:#458966;enable-background:new    ;}</style><g>	<path class="st0" d="M1210.8,91.3c-14.8,0-26.9,12.1-26.9,26.9c0,1.2,0.2,2.5,0.2,3.5l-79.4,31.7c-3.5-6-9.9-9.9-17.3-9.9		c-4.7,0-8.8,1.6-12.3,4.3l-58-51.4c0.6-1.6,1-3.5,1-5.6c0-8.8-7.2-16.2-16-16.2c-8.8,0-16.2,7.2-16.2,16.2s7.2,16,16.2,16		c6.4,0,11.7-3.7,14.4-9l57.4,51c-3.9,3.7-6.4,8.8-6.4,14.6c0,2.7,0.6,5.3,1.6,7.8l-32.3,18.9c-3.7-4.3-9-7-15-7		c-6.4,0-12.1,3.1-15.8,8L968.4,175c0.2-1,0.4-2.1,0.4-3.1c0-2.5-0.6-4.5-1.6-6.6l42.2-21.2c1.6,5.3,6.8,9.3,12.7,9.3		c7.4,0,13.6-6,13.6-13.6c0-7.4-6-13.4-13.6-13.4c-7.4,0-13.4,6-13.4,13.4c0,0.8,0,1.6,0.2,2.5l-42.8,21.4		c-2.5-3.3-6.4-5.6-10.7-5.6c-2.3,0-4.5,0.6-6.4,1.6l-21.8-29.4c3.9-3.5,6.6-8.4,6.6-14.2c0-9.9-7.6-18.1-17.5-18.7V66.6		c0.2,0,0.4,0,0.8,0c7.4,0,13.6-6,13.6-13.4s-6-13.4-13.6-13.4c-7.4,0-13.4,6-13.4,13.4c0,6.6,4.7,12.1,10.9,13.2v30.8		c-10.3,0.2-18.5,8.4-18.5,18.7c0,10.5,8.4,18.7,18.9,18.7c4.1,0,7.8-1.2,10.9-3.5l21.6,29.8c-3.5,2.5-5.6,6.4-5.6,10.9		c0,3.3,1.2,6.4,3.3,8.6L931,197.2c-3.5-3.1-8-4.9-13-4.9c-6,0-11.1,2.5-14.8,6.6l-48.5-37.4c0.6-1.4,0.8-3.1,0.8-4.7		c0-7.8-6.2-14-14-14c-5.1,0-9.7,2.9-12.1,7l-18.7-4.5c0.6-1.6,1-3.3,1-5.1c0-8.2-6.6-14.8-14.8-14.8c-2.3,0-4.3,0.4-6.2,1.2		l-23.4-84.5c7.4-1.9,12.7-8.6,12.7-16.7c0-9.5-7.8-17.3-17.3-17.3c-9.5,0-17.3,7.8-17.3,17.3c0,7.2,4.5,13.6,10.9,16l-4.5,27.1		c-0.4,0-1,0-1.4,0c-5.8,0-10.7,3.9-12.3,9.3l-51.6-5.1c0-0.2,0-0.6,0-0.8c0-6.6-5.1-11.9-11.5-12.3l-1.6-42.6		c9.9-0.2,17.9-7.4,19.3-16.9h-20.1h-1.6h-17.5c1.4,9,8.8,16.2,18.1,16.9l1.6,42.6c-6.4,0.4-11.5,5.8-11.5,12.3c0,1,0.2,2.1,0.4,3.1		l-28.8,7.6c-3.1-7.6-10.3-12.7-18.9-12.7c-2.3,0-4.5,0.4-6.6,1L581.7,8c3.3-1.6,5.8-4.3,7.2-7.8h-10.5h-1.9h-7h-3.7h-4.3		c0.2,0.6,0.4,1.2,0.8,1.9l-25.9,13.2c-1.9-3.1-5.3-5.1-9-5.1c-6,0-10.7,4.7-10.7,10.7s4.7,10.7,10.7,10.7s10.7-4.7,10.7-10.7		c0-1.4-0.2-2.9-0.8-4.1l26.1-13.4c2.7,3.7,7,6.2,11.9,6.2c1.6,0,3.3-0.4,4.9-0.8l26.3,62.7c-7.2,3.1-12.3,10.3-12.3,18.7		c0,3.1,0.6,6,1.9,8.6l-32.7,19.5c-2.3-4.9-7-8.2-12.7-8.2c-7.8,0-14,6.2-14,14c0,3.9,1.6,7.6,4.3,10.1l-14.8,11.3		c-0.8-0.2-1.6-0.4-2.5-0.4c-3.9,0-7,3.1-7,7s3.1,7,7,7c3.9,0,7-3.1,7-7c0-2.3-1.2-4.3-2.9-5.8l14.4-11.1c2.3,1.6,5.1,2.9,8.4,2.9		c2.3,0,4.3-0.4,6.2-1.4l9.9,14.8c-1.2,1.2-2.1,2.9-2.1,4.9c0,3.9,3.1,7,7,7c3.9,0,7-3.1,7-7c0-3.9-3.1-7-7-7c-1.2,0-2.5,0.4-3.7,1		l-9.7-14.6c3.9-2.5,6.4-6.8,6.4-11.7c0-1.4-0.2-2.9-0.6-4.1l32.9-19.7c3.5,6.2,10.1,10.3,17.9,10.3c11.3,0,20.4-9,20.4-20.4		c0-2.1-0.4-4.1-0.8-6l28.6-7.6c1.9,4.5,6.2,7.8,11.5,7.8c2.3,0,4.3-0.6,6.2-1.6l20.1,30.8c-5.8,3.5-9.7,9.9-9.7,17.1		c0,11.1,8.8,19.9,19.9,19.9c10.9,0,19.9-8.8,19.9-19.9c0-10.9-8.8-19.9-19.9-19.9c-3.1,0-6,0.8-8.6,2.1l-20.4-31		c2.3-1.9,3.9-4.3,4.5-7.2l51.6,5.1c-0.2,0.6-0.2,1.4-0.2,2.1c0,7.2,5.8,13,13,13c7.2,0,13-5.8,13-13c0-6-4.1-11.1-9.7-12.5		l4.5-26.9c1.4,0.4,3.1,0.6,4.7,0.6c0.8,0,1.9,0,2.7-0.2l23,85.1c-4.3,2.7-7,7.2-7,12.5c0,8,6.6,14.8,14.8,14.8c5.8,0,10.7-3.3,13-8		l18.7,4.5c-0.6,1.6-1,3.5-1,5.3c0,4.7,2.5,9,6.2,11.5l-13.2,21c-1.2-0.4-2.5-0.8-3.9-0.8c-6,0-10.7,4.7-10.7,10.7		s4.7,10.7,10.7,10.7s10.7-4.7,10.7-10.7c0-3.9-2.1-7.4-5.3-9.3l13-20.8c1.9,1,4.1,1.4,6.4,1.4c5.3,0,10.1-3.1,12.5-7.6l48.1,37		c-2.5,3.3-4.1,7.4-4.1,11.9c0,11.1,8.8,19.9,19.9,19.9c10.9,0,19.9-8.8,19.9-19.9c0-5.3-2.1-10.3-5.6-13.8l14.4-16.4		c2.5,2.1,5.6,3.5,9,3.5c5.8,0,10.7-3.7,12.5-8.6l37.2,16c-1.9,3.1-3.1,6.6-3.1,10.5c0,10.9,8.8,19.9,19.9,19.9		c11.1,0,19.9-8.8,19.9-19.9c0-4.3-1.4-8.4-3.7-11.7l31.9-18.9c3.3,6.4,9.9,10.5,17.7,10.5c2.9,0,5.6-0.6,8-1.6l12.1,32.1		c-4.5,2.1-7.8,6.8-7.8,12.1c0,7.4,6,13.4,13.6,13.4c7.4,0,13.4-6,13.4-13.4s-6-13.6-13.4-13.6c-1.4,0-2.9,0.2-4.1,0.6l-12.1-32.1		c6.2-3.3,10.3-9.9,10.3-17.5c0-3.1-0.6-6-1.9-8.4l78.3-31c2.5,12.3,13.4,21.6,26.3,21.6c4.7,0,9-1.2,13-3.3l0.2,0.6v-0.8v-3.1V94.8		C1220.1,92.5,1215.6,91.3,1210.8,91.3z"/>	<path class="st0" d="M1017.2,36.4c9.7,0,17.7-7.2,18.7-16.7l36.4,15c-1.2,2.9-1.9,6-1.9,9.3c0,14,11.3,25.3,25.3,25.3		c14,0,25.3-11.3,25.3-25.3c0-0.4,0-0.8,0-1.4l58.2-1.2c0.6,7.8,7,14,15,14c8.2,0,15-6.8,15-15c0-2.9-0.8-5.6-2.3-7.8		c-0.2-0.4-0.6-1-1-1.4c-1.4-1.9-3.5-3.5-5.6-4.5c-0.6-0.2-1-0.4-1.6-0.6c-1.4-0.4-3.1-0.8-4.7-0.8c-8,0-14.8,6.4-15,14.4l-58.4,1.2		c-1.4-12.3-11.9-22-24.9-22c-10.1,0-18.7,6-22.8,14.4l-36.8-15.2c0-0.2,0-0.2,0-0.4c0-7.8-4.9-14.6-11.7-17.5h-14.2		c-6.8,2.9-11.7,9.5-11.7,17.5C998.2,28,1006.9,36.4,1017.2,36.4z"/>	<path class="st0" d="M0,62.1v28c0.4-0.6,0.6-1,0.8-1.6C5.1,79.6,4.5,69.9,0,62.1z"/>	<path class="st0" d="M15.2,147c-3.7,7.8-0.4,17.3,7.4,21.2c7.4,3.7,16.4,0.8,20.6-6.4l54.5,27.8c-0.2,0.4-0.4,0.8-0.6,1.2		c-6.4,13.2-0.8,29,12.3,35.4s29,0.8,35.4-12.3c1.4-3.1,2.3-6.4,2.5-9.5l41.1,2.5c-3.3,9.5,0.8,19.9,10.1,24.3		c9.9,4.7,21.6,0.6,26.3-9.3c4.7-9.9,0.6-21.6-9.3-26.3c-9.9-4.7-21.6-0.6-26.3,9.3c0,0.2,0,0.2-0.2,0.4l-41.7-2.5		c0-9.9-5.6-19.5-15-24.1c-12.1-6-26.7-1.6-33.7,9.5l-54.7-28c3.3-7.8,0-16.9-7.6-20.6c-1.4-0.8-3.1-1.2-4.7-1.4l21.8-67.2		c7.8,1,15.6-2.9,19.1-10.3c4.5-9.3,0.6-20.4-8.6-24.9s-20.4-0.6-24.9,8.6s-0.6,20.4,8.6,24.9c1.2,0.6,2.7,1,3.9,1.4l-21.8,67.4		c-2.5,0-5.1,0.6-7.4,1.6L0,108.8v3.1l20.8,28.8C18.5,142.3,16.4,144.3,15.2,147z"/>	<path class="st0" d="M373.4,436.3c2.5-4.9,1.9-10.7-1-15l61.1-69.7c0.8,0.6,1.6,1,2.5,1.4c1.4,0.8,3.1,1.2,4.7,1.4l-8,27.6		c-6-1.2-12.1,1.6-14.8,7.4c-3.3,6.8-0.4,14.8,6.4,18.1s14.8,0.4,18.1-6.4c0.4-0.6,0.6-1.4,0.8-2.1l51,18.7c-0.8,3.1-0.4,6.2,1,8.8		l-33.3,19.9c-1.9-2.5-4.3-4.5-7.2-5.8c-10.5-4.9-22.8-0.6-28,9.7c-4.9,10.5-0.6,22.8,9.7,28c10.5,4.9,22.8,0.6,28-9.7		c3.3-6.8,2.5-14.6-1.4-20.6l33.1-19.9c1.2,1.9,2.9,3.3,5.1,4.3c4.9,2.5,10.7,1.4,14.4-2.1l23.6,20.4c-1.4,1.4-2.7,3.3-3.5,5.1		c-5.1,10.7-0.6,23.4,10.1,28.6c7.2,3.5,15.4,2.5,21.6-1.6l22,33.5c-1,1-1.9,2.3-2.5,3.7c-2.3,4.7-1.9,9.9,0.6,14l-15.8,9.3		c-0.6-1-1.6-2.1-2.9-2.7c-3.7-1.9-8-0.2-9.9,3.5c-1.9,3.7-0.2,8,3.5,9.9c3.7,1.9,8,0.2,9.9-3.5c0.8-1.9,1-3.7,0.4-5.6l16-9.5		c1.2,1.6,3.1,3.1,5.1,4.1c2.9,1.4,6.2,1.9,9.3,1.2l8.6,17.1c-2.3,0.4-4.3,1.9-5.3,4.1c-1.9,3.7-0.2,8,3.5,9.7		c3.7,1.9,8,0.2,9.9-3.3c1.9-3.5,0.2-8-3.5-9.9c-0.8-0.4-1.6-0.6-2.5-0.6l-8.8-17.5c3.7-1.2,6.8-3.9,8.6-7.6		c3.5-7.4,0.4-16-6.8-19.5c-5.3-2.7-11.5-1.6-15.8,2.1l-22-33.5c2.3-1.9,4.3-4.3,5.8-7.2c3.9-8,2.3-17.1-3.1-23.4l53.5-47.3		c1.2,1.2,2.7,2.3,4.3,3.1c4.7,2.3,9.9,1.9,14-0.4l18.5,24.5c-1,1-2.1,2.1-2.7,3.5c-2.7,5.6-0.4,12.3,5.3,15		c5.6,2.7,12.3,0.4,15-5.3s0.4-12.3-5.3-15c-3.7-1.9-7.8-1.4-10.9,0.6l-18.5-24.3c2.1-1.4,3.7-3.3,4.7-5.8		c3.7-7.6,0.4-16.7-7.2-20.4s-16.7-0.4-20.4,7.2c-2.7,5.3-1.6,11.5,1.6,16l-53.5,47.5c-1.6-1.6-3.5-2.9-5.8-3.9		c-8.2-3.9-17.5-2.3-23.9,3.5l-23.6-20.4c0.6-0.8,1.2-1.6,1.6-2.7c2.9-6.2,0.6-13.6-5.3-16.9l21-39.5c10.1,3.9,21.6-0.4,26.5-10.3		c4.9-10.5,0.6-22.8-9.7-28c-0.2,0-0.4-0.2-0.6-0.2l7.6-30.4c7,2.1,14.6-1.2,17.9-8c3.7-7.6,0.4-16.7-7.2-20.4		c-7.6-3.7-16.7-0.4-20.4,7.2c-3.7,7.6-0.4,16.7,7.2,20.4c0.2,0.2,0.4,0.2,0.6,0.2l-7.4,30.4c-9.9-3.5-21,1-25.7,10.7		c-4.9,10.3-0.6,22.6,9.5,27.8l-21,39.5c-6.4-2.5-13.6,0.2-16.4,6.4c-0.2,0.2-0.2,0.6-0.4,0.8l-51.2-18.7c0.8-5.8-2.1-11.7-7.6-14.4		c-0.4-0.2-1-0.4-1.4-0.6l8-27.8c7.2,0.6,14.4-3.3,17.7-10.1c4.3-8.8,0.6-19.7-8.4-24.1c-9-4.3-19.7-0.4-24.1,8.4		c-3.7,7.6-1.4,16.4,4.5,21.6l-60.7,69.3c-1.4-1.6-3.1-3.1-5.1-4.1c-7.6-3.7-16.9-0.4-20.6,7.2c-0.8,1.6-1.2,3.5-1.4,5.3l-19.7-4.3		c-0.4-5.1-3.3-9.7-8.2-12.1c-7.4-3.5-16-0.4-19.5,6.8c-0.8,1.6-1.2,3.3-1.4,4.9l-62.7,13.2c-1.6-5.6-5.3-10.3-10.9-13		c-4.7-2.3-9.9-2.7-14.6-1.2l-6.2-22.2c3.1-1.2,5.6-3.7,7-6.8c2.1-4.3,1.9-9-0.4-13l33.9-18.3c1.9,3.5,4.9,6.6,8.8,8.4		c9.9,4.7,21.6,0.6,26.3-9.3c4.7-9.7,0.6-21.4-9-26.3l14.2-29.2c6.4,1.9,13.4-1.2,16.4-7.4c3.3-7,0.4-15.4-6.6-18.9		c-7-3.5-15.4-0.4-18.9,6.6c-3.3,7-0.4,15.4,6.6,18.9c0.2,0.2,0.4,0.2,0.6,0.2l-14,29c-9.5-3.7-20.6,0.4-25.1,9.9		c-2.7,5.3-2.5,11.3-0.4,16.4l-34.1,18.3c-1.2-1.9-3.1-3.3-5.3-4.5c-4.1-2.1-8.8-1.9-12.7,0.2l-30.6-39.7c0.4-0.6,1-1.4,1.2-2.3		c3.3-7,0.4-15.4-6.6-18.7c-7-3.5-15.4-0.4-18.9,6.6c-3.5,7-0.4,15.4,6.6,18.9c5.6,2.7,12.1,1.2,16.2-3.1l30.2,39.1		c-1.9,1.4-3.5,3.1-4.5,5.3c-0.4,1-0.8,2.1-1,3.1l-43-1.9c-1.2-6.2-5.1-11.7-11.3-14.8c-5.8-2.7-11.9-2.7-17.5-0.4l-21.8-32.7		c2.1-1.9,3.7-4.1,5.1-6.6c2.7-5.3,2.7-11.5,0.6-16.7l77.5-22c0,6.2,3.5,12.1,9.5,15c8.4,4.1,18.5,0.6,22.6-7.8s0.6-18.5-7.8-22.6		s-18.5-0.4-22.6,8c-0.8,1.9-1.4,3.7-1.6,5.6l-78.1,22.2c-2.1-4.1-5.3-7.4-9.7-9.7c-7-3.3-14.8-2.5-20.8,1.4L1.6,235.6		c0.6-1,1.2-2.1,1.9-3.3c4.7-10.1,3.1-21.8-3.5-30v31.5v2.7v1.2c0.2-0.2,0.4-0.4,0.6-0.6l60.2,65.6c-2.3,1.9-4.3,4.3-5.8,7.2		c-3.5,7.2-2.5,15.2,1.9,21.2l-26.1,24.9c-1-1-2.3-1.9-3.7-2.5c-7-3.3-15.4-0.4-18.9,6.6c-3.3,7-0.4,15.4,6.6,18.9		c7,3.5,15.4,0.4,18.9-6.6c2.5-5.1,1.6-10.9-1.9-15l25.9-24.7c1.9,2.1,4.1,3.9,6.8,5.3c7.2,3.5,15.4,2.5,21.4-2.1l21.6,32.3		c-3.7,2.1-6.8,5.1-8.8,9.3c-4.9,10.5-0.6,22.8,9.7,28c10.3,4.9,22.8,0.6,27.8-9.7c1.9-3.7,2.3-7.6,1.9-11.3l42.6,1.9		c-0.6,5.8,2.5,11.3,7.8,14c3.3,1.6,6.8,1.9,10.1,0.8l6.2,22.2c-4.9,1.9-9.3,5.3-11.5,10.5c-4.9,10.5-0.6,22.8,9.7,28		c10.5,4.9,22.8,0.6,28-9.7c2.1-4.3,2.5-8.8,1.6-13.2l62.3-13.2c0.2,5.3,3.1,10.5,8.2,13c2.1,1,4.5,1.4,6.6,1.4l2.9,25.5		c-3.9,0.4-7.4,2.7-9.3,6.4c-2.7,5.6-0.4,12.3,5.3,15c5.6,2.7,12.3,0.4,15-5.3c2.7-5.6,0.4-12.3-5.3-15c-1.2-0.6-2.7-1-4.1-1		l-2.9-25.7c4.7-0.6,8.8-3.5,11.1-8.2c0.8-1.9,1.4-3.7,1.4-5.6l19.7,4.3c0.2,5.6,3.3,10.9,8.6,13.4		C360.4,447.4,369.7,444.1,373.4,436.3z"/></g></svg>